<svg width="48" height="48" xmlns="http://www.w3.org/2000/svg">

 <g>
  <title>background</title>
  <rect fill="none" id="canvas_background" height="50" width="50" y="-1" x="-1"/>
 </g>
 <g>
  <title>Layer 1</title>
  <path stroke="null" id="svg_1" fill="none" d="m0,0l24,0l0,24l-24,0l0,-24z"/>
  <path stroke="null" id="svg_2" d="m24.5,12.75c-1.2375,0 -2.25,0.9675 -2.25,2.15l0,6.45l-6.75,0c-1.2375,0 -2.25,0.9675 -2.25,2.15s1.0125,2.15 2.25,2.15l6.75,0l0,6.45c0,1.1825 1.0125,2.15 2.25,2.15s2.25,-0.9675 2.25,-2.15l0,-6.45l6.75,0c1.2375,0 2.25,-0.9675 2.25,-2.15s-1.0125,-2.15 -2.25,-2.15l-6.75,0l0,-6.45c0,-1.1825 -1.0125,-2.15 -2.25,-2.15zm0,-10.75c-12.42,0 -22.5,9.632 -22.5,21.500001s10.08,21.500001 22.5,21.500001s22.5,-9.632 22.5,-21.500001s-10.08,-21.500001 -22.5,-21.500001zm0,38.700002c-9.9225,0 -18,-7.7185 -18,-17.200001s8.0775,-17.200001 18,-17.200001s18,7.7185 18,17.200001s-8.0775,17.200001 -18,17.200001z"/>
 </g>
</svg>
