<svg id="svg" version="1.1" xmlns="http://www.w3.org/2000/svg" xmlns:xlink="http://www.w3.org/1999/xlink" width="400" height="264.73988439306356" viewBox="0, 0, 400,264.73988439306356">
<g id="wada">
	<path id="path0" 
      d="M190.173 3.376 C 183.612 6.455,5.391 185.040,2.930 191.003 C 0.559 196.748,0.730 204.179,3.363 209.827 C 6.382 216.303,49.924 259.351,56.076 261.943 C 
      60.457 263.788,69.036 264.825,69.654 263.584 C 70.184 262.521,79.175 258.539,80.347 258.848 C 80.983 259.015,81.215 258.865,80.864 258.513 C 80.512 
      258.161,107.174 230.943,140.112 198.027 L 200.000 138.180 259.888 198.027 C 292.826 230.943,319.488 258.161,319.136 258.513 C 318.785 258.865,319.017 
      259.015,319.653 258.848 C 320.825 258.539,329.816 262.521,330.346 263.584 C 330.964 264.825,339.543 263.788,343.924 261.943 C 350.076 259.351,393.618 
      216.303,396.637 209.827 C 399.270 204.179,399.441 196.748,397.070 191.003 C 394.609 185.040,216.388 6.455,209.827 3.376 C 207.283 2.183,202.861 1.207,200.000 
      1.207 C 197.139 1.207,192.717 2.183,190.173 3.376 " 
      stroke="none" 
      fill="#fff" 
      fill-rule="evenodd">
  </path>
</g>
</svg>
