<?xml version="1.0" encoding="utf-8"?>
<!-- Generator: Adobe Illustrator 24.1.1, SVG Export Plug-In . SVG Version: 6.00 Build 0)  -->
<svg version="1.1" id="Capa_1" xmlns="http://www.w3.org/2000/svg" xmlns:xlink="http://www.w3.org/1999/xlink" x="0px" y="0px"
	 viewBox="0 0 177.3 177.8" style="enable-background:new 0 0 177.3 177.8;" xml:space="preserve">
<style type="text/css">
	.st0{fill:#FFFFFF;}
	.st1{fill:#3F8532;}
</style>
<path class="st0" d="M149.2,0h-23.7H57.4H28C12.5,0,0,12.6,0,28v121.8c0,15.5,12.6,28,28,28h23.7h68.1h29.5c15.5,0,28-12.6,28-28
	V28.1C177.2,12.6,164.7,0,149.2,0z"/>
<g>
	<g id="XMLID_1_">
		<g>
			<path class="st1" d="M170,28.1v121.8c0,11.2-9.1,20.3-20.3,20.3H28c-11.2,0-20.3-9.1-20.3-20.3V28.1C7.7,16.9,16.8,7.8,28,7.8
				h121.7C160.9,7.8,170,17,170,28.1z M135.7,57v-1.1c0-5.5-11.5-12.8-27.4-15.6l-5.3-5.9c-2-2.9-4.2-3.5-8.6-3.5H83.1
				c-4.3,0-6.5,0.6-8.6,3.5l-5.3,5.9c-15.9,2.8-27.4,10.2-27.4,15.6V57c0,9.6,21.1,17.3,47,17.3S135.7,66.5,135.7,57z M122.7,137.4
				l6.8-60c-10.4,5.8-25.9,8.6-40.8,8.6c-14.8,0-30.4-2.8-40.8-8.6l6.8,60c0.3,2.9,14.1,12.3,34,12.3
				C108.6,149.6,122.3,140.3,122.7,137.4z"/>
			<path class="st0" d="M135.7,55.9V57c0,9.5-21,17.3-46.9,17.3s-47-7.7-47-17.3v-1.1c0-5.4,11.5-12.8,27.4-15.6l5.3-5.9
				c2.1-2.9,4.3-3.5,8.6-3.5h11.3c4.4,0,6.6,0.6,8.6,3.5l5.3,5.9C124.2,43.1,135.7,50.4,135.7,55.9z M101.5,54.1H112
				c0,0-11.5-13.7-13.1-15.6c-1.1-1.3-2.3-1.9-3.9-1.9H82.4c-1.6,0-2.7,0.5-3.9,1.9c-1.5,1.9-13,15.6-13,15.6H76l7.7-8.3h10.1
				L101.5,54.1z"/>
			<path class="st0" d="M129.5,77.4l-6.8,60c-0.4,2.9-14.1,12.2-34,12.3c-19.9,0-33.7-9.4-34-12.3l-6.8-60c10.4,5.8,26,8.6,40.8,8.6
				C103.6,86,119.1,83.2,129.5,77.4z"/>
			<path class="st1" d="M112,54.1h-10.5l-7.7-8.3H83.7L76,54.1H65.5c0,0,11.5-13.7,13-15.6c1.2-1.4,2.3-1.9,3.9-1.9H95
				c1.6,0,2.8,0.6,3.9,1.9C100.5,40.4,112,54.1,112,54.1z"/>
		</g>
	</g>
</g>
</svg>
