<?xml version="1.0" encoding="utf-8"?>
<!-- Generator: Adobe Illustrator 22.1.0, SVG Export Plug-In . SVG Version: 6.00 Build 0)  -->
<svg version="1.1" id="Capa_1" xmlns="http://www.w3.org/2000/svg" xmlns:xlink="http://www.w3.org/1999/xlink" x="0px" y="0px"
	 viewBox="203 359 164 164" style="enable-background:new 203 359 164 164;" xml:space="preserve">
<style type="text/css">
	.st0{fill:#3F8532;}
	.st1{fill:#FFFFFF;}
</style>
<g>
	<g id="XMLID_1_">
		<g>
			<path class="st0" d="M366,379.7v121.8c0,11.2-9.1,20.3-20.3,20.3H224c-11.2,0-20.3-9.1-20.3-20.3V379.7
				c0-11.2,9.1-20.3,20.3-20.3h121.7C356.9,359.4,366,368.6,366,379.7z M331.7,408.6v-1.1c0-5.5-11.5-12.8-27.4-15.6L299,386
				c-2-2.9-4.2-3.5-8.6-3.5h-11.3c-4.3,0-6.5,0.6-8.6,3.5l-5.3,5.9c-15.9,2.8-27.4,10.2-27.4,15.6v1.1c0,9.6,21.1,17.3,47,17.3
				C310.7,425.9,331.7,418.1,331.7,408.6z M318.7,489l6.8-60c-10.4,5.8-25.9,8.6-40.8,8.6c-14.8,0-30.4-2.8-40.8-8.6l6.8,60
				c0.3,2.9,14.1,12.3,34,12.3C304.6,501.2,318.3,491.9,318.7,489z"/>
			<path class="st1" d="M331.7,407.5v1.1c0,9.5-21,17.3-46.9,17.3c-25.9,0-47-7.7-47-17.3v-1.1c0-5.4,11.5-12.8,27.4-15.6l5.3-5.9
				c2.1-2.9,4.3-3.5,8.6-3.5h11.3c4.4,0,6.6,0.6,8.6,3.5l5.3,5.9C320.2,394.7,331.7,402,331.7,407.5z M297.5,405.7H308
				c0,0-11.5-13.7-13.1-15.6c-1.1-1.3-2.3-1.9-3.9-1.9h-12.6c-1.6,0-2.7,0.5-3.9,1.9c-1.5,1.9-13,15.6-13,15.6H272l7.7-8.3h10.1
				L297.5,405.7z"/>
			<path class="st1" d="M325.5,429l-6.8,60c-0.4,2.9-14.1,12.2-34,12.3c-19.9,0-33.7-9.4-34-12.3l-6.8-60c10.4,5.8,26,8.6,40.8,8.6
				C299.6,437.6,315.1,434.8,325.5,429z"/>
			<path class="st0" d="M308,405.7h-10.5l-7.7-8.3h-10.1l-7.7,8.3h-10.5c0,0,11.5-13.7,13-15.6c1.2-1.4,2.3-1.9,3.9-1.9H291
				c1.6,0,2.8,0.6,3.9,1.9C296.5,392,308,405.7,308,405.7z"/>
		</g>
		<g>
		</g>
	</g>
</g>
</svg>
