<?xml version="1.0" encoding="utf-8"?>
<!-- Generator: Adobe Illustrator 22.1.0, SVG Export Plug-In . SVG Version: 6.00 Build 0)  -->
<svg version="1.1" id="Capa_1" xmlns="http://www.w3.org/2000/svg" xmlns:xlink="http://www.w3.org/1999/xlink" x="0px" y="0px"
     viewBox="195 360 180 160" style="enable-background:new 0 0 595.3 841.9;" xml:space="preserve">
<style type="text/css">
	.st0{fill:#3F8532;}
	.st1{fill:#FFFFFF;}
</style>
	<g id="XMLID_1_">
		<g>
			<path class="st0" d="M366,379.7v121.8c0,11.2-9.1,20.3-20.3,20.3H224c-11.2,0-20.3-9.1-20.3-20.3V379.7
				c0-11.2,9.1-20.3,20.3-20.3h121.7C356.9,359.4,366,368.6,366,379.7z M330.7,412.7c0,0,1.3-6.5-7.3-15.1
				c-8.7-8.7-15.2-7.4-15.2-7.4l-30.4,30.4l-34.7,34.7l-6.1,28.6l28.6-6.1l34.7-34.7L330.7,412.7z"/>
            <path class="st1" d="M323.4,397.6c8.6,8.6,7.3,15.1,7.3,15.1l-30.4,30.4l-34.7,34.7l-28.6,6.1l6.1-28.6l34.7-34.7l30.4-30.4
				C308.2,390.2,314.7,388.9,323.4,397.6z M264,474.4l2.8-2.8c0,0-0.1-5.3-6.1-11.3c-6-6.1-11.4-6.2-11.4-6.2l-2.8,2.8l-2.1,9.8
				c1.8,0.9,3.5,2.1,5.6,4.2c2.1,2.1,3.2,3.8,4.2,5.6L264,474.4z"/>
            <path class="st0" d="M266.8,471.6l-2.8,2.8l-9.8,2.1c-1-1.8-2.1-3.5-4.2-5.6c-2.1-2.1-3.8-3.3-5.6-4.2l2.1-9.8l2.8-2.8
				c0,0,5.4,0.1,11.4,6.2C266.7,466.3,266.8,471.6,266.8,471.6z"/>
		</g>
	</g>
</svg>
