<?xml version="1.0" encoding="utf-8"?>
<!-- Generator: Adobe Illustrator 22.1.0, SVG Export Plug-In . SVG Version: 6.00 Build 0)  -->
<svg version="1.1" id="Capa_1" xmlns="http://www.w3.org/2000/svg" xmlns:xlink="http://www.w3.org/1999/xlink" x="0px" y="0px"
	 viewBox="214 357 172 172" style="enable-background:new 0 0 595.3 841.9;" xml:space="preserve">
<style type="text/css">
	.st0{fill:#FFFFFF;}
	.st1{fill:#AA1A1A;}
</style>
<g id="XMLID_1_">
	<g>
		<polygon class="st0" points="348.5,412 317.5,443 348.5,474 331,491.4 300.1,460.5 269.1,491.5 251.6,474 282.5,443 251.6,412 
			269.1,394.5 300.1,425.5 331,394.5 		"/>
		<path class="st1" d="M300.1,358.1c46.9,0,84.9,38,84.9,84.9c0,47-38,85-84.9,85c-47,0-85-38.1-85-85S253.1,358,300.1,358.1z
			 M317.5,443l31-31L331,394.5l-30.9,31l-31-31L251.6,412l30.9,31l-30.9,31l17.5,17.5l31-31l30.9,30.9l17.5-17.4L317.5,443z"/>
	</g>
</g>
</svg>
