<?xml version="1.0" encoding="utf-8"?>
<!-- Generator: Adobe Illustrator 22.1.0, SVG Export Plug-In . SVG Version: 6.00 Build 0)  -->
<svg version="1.1" id="Capa_1" xmlns="http://www.w3.org/2000/svg" xmlns:xlink="http://www.w3.org/1999/xlink" x="0px" y="0px"
	 viewBox="211 335 176 176" style="enable-background:new 0 0 595.3 841.9;" xml:space="preserve">
<style type="text/css">
	.st0{fill:#3F8532;}
	.st1{fill:#FFFFFF;}
</style>
<g id="XMLID_1_">
	<g>
		<path class="st0" d="M386,422.1c0.6,48.2-37.9,87.8-86,88.4c-48.2,0.6-87.7-37.9-88.4-86.1c-0.6-48.1,37.9-87.7,86-88.3
			C345.8,335.5,385.4,374,386,422.1z M320.5,458l-3.4-4.6c-5.8,4.6-11.8,6.8-13.6,6.8c-1.4,0-2-1.9-0.6-7.2l8-30.1
			c3.1-11,2-18.2-4-18.2c-7.3,0-24.2,7.2-39,19.5l3,5c4.6-3.1,12.5-6.3,14.3-6.3c1.4,0,1.2,1.8,0,6.4l-7,28.7
			c-4.2,16.1,0.3,19.8,6.3,19.8S306.2,472.3,320.5,458z M318.8,376.2c0-5.8-2.6-11-11.5-11c-11.6,0-16.5,8-16.5,13.9
			c-0.3,7,3.7,11.2,12.1,11.2C312.9,390.3,318.8,383.5,318.8,376.2z"/>
		<path class="st1" d="M317.1,453.4l3.4,4.6c-14.3,14.3-30,19.8-36,19.8s-10.5-3.7-6.3-19.8l7-28.7c1.2-4.6,1.4-6.4,0-6.4
			c-1.8,0-9.7,3.2-14.3,6.3l-3-5c14.8-12.3,31.7-19.5,39-19.5c6,0,7.1,7.2,4,18.2l-8,30.1c-1.4,5.3-0.8,7.2,0.6,7.2
			C305.3,460.2,311.3,458,317.1,453.4z"/>
		<path class="st1" d="M307.3,365.2c8.9,0,11.5,5.2,11.5,11c0,7.3-5.9,14.1-15.9,14.1c-8.4,0-12.4-4.2-12.1-11.2
			C290.8,373.2,295.7,365.2,307.3,365.2z"/>
	</g>
</g>
</svg>
