<?xml version="1.0" encoding="utf-8"?>
<!-- Generator: Adobe Illustrator 22.1.0, SVG Export Plug-In . SVG Version: 6.00 Build 0)  -->
<svg version="1.1" id="Capa_1" xmlns="http://www.w3.org/2000/svg" xmlns:xlink="http://www.w3.org/1999/xlink" x="0px" y="0px"
	 viewBox="206 361 162 163" style="enable-background:new 0 0 595.3 841.9;" xml:space="preserve">
<style type="text/css">
	.st0{fill:#3F8532;}
</style>
    <g>
        <path class="st0" d="M351.5,449.5c-3.8,33.8-33.9,59.9-69.2,57c-31.2-2.5-56.4-27.7-58.9-58.9c-3-37.8,27-69.6,64.2-69.6
            c4.9,0,9.3,0.5,13.6,1.4c2.6,0.6,5.4-0.3,7.3-2.2l0,0c4.5-4.5,2.2-12.2-4-13.5c-5.5-1.2-11.2-1.9-16.9-1.9
            c-44.3,0-80.5,36.2-80.5,80.5s36.2,80.5,80.5,80.5c41.3,0,75.5-31.5,80-71.6c0.5-4.7-3.2-8.9-8-8.9l0,0
            C355.4,442.4,351.9,445.5,351.5,449.5z"/>
    </g>
    <path class="st0" d="M287.4,453.5l-16.3-21.6c-3.2-4.3-9.3-5.1-13.6-1.9c-4.3,3.2-5.1,9.3-1.9,13.6l24.8,32.8
        c1.8,2.4,4.7,3.9,7.7,3.9c0.2,0,0.3,0,0.5,0c3.2-0.1,6.1-1.8,7.8-4.6l48.6-77.9c2.8-4.6,1.4-10.5-3.1-13.4
        c-4.6-2.8-10.5-1.4-13.4,3.1L287.4,453.5z"/>
</svg>
