<?xml version="1.0" encoding="utf-8"?>
<!-- Generator: Adobe Illustrator 22.1.0, SVG Export Plug-In . SVG Version: 6.00 Build 0)  -->
<svg version="1.1" id="Capa_1" xmlns="http://www.w3.org/2000/svg" xmlns:xlink="http://www.w3.org/1999/xlink" x="0px" y="0px"
	 viewBox="214 357 172 172" style="enable-background:new 0 0 595.3 841.9;" xml:space="preserve">
<style type="text/css">
	.st0{fill:#3F8532;}
	.st1{fill:#FFFFFF;}
</style>
<g id="XMLID_1_">
	<g>
		<path class="st0" d="M300.1,358c46.9,0,84.9,38.1,84.9,84.9c0,47-38,85-84.9,85c-47,0-85-38.1-85-85
			C215.1,396.1,253.2,358,300.1,358z M340,410.2c2.5-4.1,1.3-9.3-2.7-11.9c-4-2.4-9.3-1.2-11.8,2.8l-36.3,58.3l-14.4-19.1
			c-2.9-3.8-8.2-4.5-12-1.7c-3.7,2.9-4.5,8.2-1.6,12l21.9,29c1.6,2.1,4.1,3.4,6.8,3.4c0.1,0,0.3,0,0.4,0c2.8-0.1,5.4-1.6,6.9-4
			L340,410.2z"/>
		<path class="st1" d="M337.3,398.3c4,2.6,5.2,7.8,2.7,11.9L297.2,479c-1.5,2.4-4.1,3.9-6.9,4c-0.1,0-0.3,0-0.4,0
			c-2.7,0-5.2-1.3-6.8-3.4l-21.9-29c-2.9-3.8-2.1-9.1,1.6-12c3.8-2.8,9.1-2.1,12,1.7l14.4,19.1l36.3-58.3
			C328,397.1,333.3,395.9,337.3,398.3z"/>
	</g>
	<g>
	</g>
</g>
</svg>
