<?xml version="1.0" encoding="utf-8"?>
<!-- Generator: Adobe Illustrator 22.1.0, SVG Export Plug-In . SVG Version: 6.00 Build 0)  -->
<svg version="1.1" id="Capa_1" xmlns="http://www.w3.org/2000/svg" xmlns:xlink="http://www.w3.org/1999/xlink" x="0px" y="0px"
	 viewBox="207 347 191 170" style="enable-background:new 0 0 595.3 841.9;" xml:space="preserve">
<style type="text/css">
	.st0{fill:#FFFFFF;}
	.st1{fill:#9A5713;}
</style>
<g id="XMLID_1_">
	<g>
		<rect x="291.7" y="476.4" class="st0" width="21.8" height="19.8"/>
		<rect x="291.7" y="402.2" class="st0" width="21.8" height="59.4"/>
		<path class="st1" d="M396.8,506c1.1,2.1,1.1,4.6-0.1,6.7c-1.2,2-3.5,3.3-5.9,3.3H214.4c-2.4,0-4.7-1.3-5.9-3.3
			c-1.3-2.1-1.3-4.7-0.1-6.7l88.2-154.8c1.2-2.1,3.5-3.5,6-3.5s4.8,1.4,6,3.5L396.8,506z M313.5,496.2v-19.8h-21.8v19.8H313.5z
			 M313.5,461.6v-59.4h-21.8v59.4H313.5z"/>
	</g>
</g>
</svg>
