<?xml version="1.0" encoding="utf-8"?>
<!-- Generator: Adobe Illustrator 24.1.1, SVG Export Plug-In . SVG Version: 6.00 Build 0)  -->
<svg version="1.1" id="Layer_1" xmlns="http://www.w3.org/2000/svg" xmlns:xlink="http://www.w3.org/1999/xlink" x="0px" y="0px"
	 viewBox="0 0 30 30" style="enable-background:new 0 0 30 30;" xml:space="preserve">
<style type="text/css">
	.st1{fill:#FFFFFF;}
</style>
<path class="st1" d="M9.7,7c0,0-0.7,0.2-1.6,1.2S7,10,7,10s0.3,3.8,4.7,8.2C16.2,22.7,20,23,20,23s0.9-0.2,1.8-1.1
	c0.9-0.9,1.2-1.6,1.2-1.6s-0.1-1-1.5-2.4c-1.4-1.4-2.4-1.5-2.4-1.5s-0.7,0.4-0.8,0.6c-0.3,0.2-0.7,1.3-0.7,1.3s-1.8,0-3.7-1.9
	c-1.9-1.9-2-3.7-2-3.7s1.1-0.4,1.4-0.7c0.2-0.2,0.6-0.8,0.6-0.8s-0.1-1.1-1.5-2.4C10.9,7.3,9.7,7,9.7,7z"/>
</svg>
