<?xml version="1.0" encoding="utf-8"?>
<!-- Generator: Adobe Illustrator 24.1.1, SVG Export Plug-In . SVG Version: 6.00 Build 0)  -->
<svg version="1.1" id="Layer_1" xmlns="http://www.w3.org/2000/svg" xmlns:xlink="http://www.w3.org/1999/xlink" x="0px" y="0px"
	 viewBox="0 0 30 30" style="enable-background:new 0 0 30 30;" xml:space="preserve">
<style type="text/css">
	.st1{fill:#FFFFFF;}
</style>
<g>
	<path class="st1" d="M14.9,18.7c-0.4,0-0.7-0.1-0.8-0.4c-0.2-0.3-0.3-0.7-0.3-1.2c0-0.6,0.1-1.2,0.2-1.7c0.2-0.6,0.4-1.1,0.7-1.7
		c0.1-0.2,0.3-0.6,0.6-1c0.9-1.4,1.3-2.5,1.3-3.3c0-0.6-0.2-1.1-0.5-1.5c-0.3-0.4-0.8-0.6-1.4-0.6c-0.5,0-1,0.2-1.3,0.5
		c-0.3,0.3-0.6,0.8-0.7,1.4l0,0.1c-0.3,1.3-0.8,1.9-1.5,1.9c-0.4,0-0.7-0.1-0.9-0.4C10.1,10.4,10,10,10,9.5c0-1,0.5-1.9,1.5-2.7
		c1-0.7,2.2-1.1,3.7-1.1c1.5,0,2.6,0.4,3.5,1.1C19.6,7.5,20,8.5,20,9.7c0,0.7-0.1,1.3-0.4,1.8c-0.3,0.5-0.8,1.2-1.6,1.9
		c-0.1,0.1-0.2,0.2-0.4,0.3c-0.8,0.7-1.3,1.4-1.6,2.1c-0.1,0.3-0.2,0.7-0.2,1.2c0,0.5,0,0.8-0.1,0.9c-0.1,0.3-0.2,0.6-0.3,0.6
		C15.3,18.6,15.1,18.7,14.9,18.7z"/>
	<path class="st1" d="M13,22.4c0-0.6,0.2-1,0.6-1.4s0.8-0.6,1.4-0.6c0.5,0,1,0.2,1.4,0.6s0.6,0.8,0.6,1.4c0,0.5-0.2,1-0.6,1.4
		c-0.4,0.4-0.8,0.6-1.4,0.6c-0.5,0-1-0.2-1.4-0.6C13.1,23.3,13,22.9,13,22.4z"/>
</g>
</svg>
