<?xml version="1.0" encoding="utf-8"?>
<!-- Generator: Adobe Illustrator 24.1.1, SVG Export Plug-In . SVG Version: 6.00 Build 0)  -->
<svg version="1.1" id="Layer_1" xmlns="http://www.w3.org/2000/svg" xmlns:xlink="http://www.w3.org/1999/xlink" x="0px" y="0px"
	 viewBox="0 0 37.7 37.7" style="enable-background:new 0 0 37.7 37.7;" xml:space="preserve">
<style type="text/css">
	.st0{fill:#2F6934;}
	.st1{fill:#FFFFFF;}
	.st2{fill:#40853F;}
</style>
<path class="st1" d="M23.9,4.1c-5.5-5.5-14.3-5.5-19.8,0s-5.5,14.3,0,19.8c5,5,12.8,5.4,18.3,1.3l11.9,11.9c0.8,0.8,2,0.8,2.8,0
	s0.8-2,0-2.8L25.2,22.4C29.3,16.9,28.9,9.1,23.9,4.1z M21.8,21.8c-4.3,4.3-11.3,4.3-15.6,0s-4.3-11.3,0-15.6s11.3-4.3,15.6,0
	S26.1,17.5,21.8,21.8z"/>
</svg>
