<?xml version="1.0" encoding="utf-8"?>
<!-- Generator: Adobe Illustrator 23.1.0, SVG Export Plug-In . SVG Version: 6.00 Build 0)  -->
<svg version="1.1" id="Layer_1" xmlns="http://www.w3.org/2000/svg" xmlns:xlink="http://www.w3.org/1999/xlink" x="0px" y="0px"
	 viewBox="0 0 370 310" style="enable-background:new 0 0 370 310;" xml:space="preserve">
<style type="text/css">
	.st0{fill:#FFFFFF;}
</style>
<g>
	<g>
		<g>
			<path class="st0" d="M368.09,97.46h-38.6V75.11c0-4.74,3.86-8.6,8.6-8.6h21.41c4.74,0,8.6,3.86,8.6,8.6V97.46z M339.39,87.55
				h18.79V76.42h-18.79V87.55z"/>
		</g>
		<g>
			<path class="st0" d="M348.79,297.02c-0.01,0-0.01,0-0.02,0c-2.98-0.01-5.69-1.77-6.89-4.5l-11.97-26.88
				c-1.11-2.5,0.01-5.43,2.51-6.54c2.46-1.1,5.43,0.01,6.54,2.51l9.83,22.07l9.82-22.07c1.11-2.51,4.08-3.62,6.54-2.51
				c2.5,1.11,3.63,4.04,2.51,6.54l-11.97,26.89C354.48,295.26,351.77,297.02,348.79,297.02z M350.93,288.49l0.01,0.02
				C350.94,288.5,350.93,288.5,350.93,288.49z"/>
		</g>
		<g>
			<path class="st0" d="M363.13,268.58c-2.74,0-4.95-2.21-4.95-4.95V97.46h-18.79v166.17c0,2.74-2.22,4.95-4.95,4.95
				c-2.74,0-4.95-2.21-4.95-4.95V87.55h38.6v176.08C368.09,266.37,365.87,268.58,363.13,268.58z"/>
		</g>
		<g>
			<path class="st0" d="M363.13,268.58h-28.7c-2.74,0-4.95-2.21-4.95-4.95c0-2.74,2.21-4.95,4.95-4.95h28.7
				c2.74,0,4.95,2.22,4.95,4.95C368.09,266.37,365.87,268.58,363.13,268.58z"/>
		</g>
	</g>
	<g>
		<path class="st0" d="M63.4,43.72c-2.74,0-4.95-2.21-4.95-4.95V7.54c0-2.74,2.21-4.95,4.95-4.95c2.74,0,4.95,2.21,4.95,4.95v31.22
			C68.36,41.51,66.14,43.72,63.4,43.72z"/>
	</g>
	<g>
		<path class="st0" d="M120.49,43.72c-2.74,0-4.95-2.21-4.95-4.95V7.54c0-2.74,2.21-4.95,4.95-4.95c2.74,0,4.95,2.21,4.95,4.95
			v31.22C125.44,41.51,123.22,43.72,120.49,43.72z"/>
	</g>
	<g>
		<path class="st0" d="M177.56,43.72c-2.74,0-4.95-2.21-4.95-4.95V7.54c0-2.74,2.21-4.95,4.95-4.95c2.74,0,4.95,2.21,4.95,4.95
			v31.22C182.51,41.51,180.29,43.72,177.56,43.72z"/>
	</g>
	<g>
		<path class="st0" d="M234.64,43.72c-2.74,0-4.95-2.21-4.95-4.95V7.54c0-2.74,2.21-4.95,4.95-4.95s4.95,2.21,4.95,4.95v31.22
			C239.59,41.51,237.38,43.72,234.64,43.72z"/>
	</g>
	<g>
		<path class="st0" d="M291.71,43.72c-2.74,0-4.95-2.21-4.95-4.95V7.54c0-2.74,2.21-4.95,4.95-4.95c2.74,0,4.95,2.21,4.95,4.95
			v31.22C296.66,41.51,294.45,43.72,291.71,43.72z"/>
	</g>
	<g>
		<path class="st0" d="M331.01,306.52H9.24c-4.33,0-7.86-3.53-7.86-7.86V26.11c0-4.35,3.55-7.9,7.9-7.9h336.57
			c4.35,0,7.89,3.54,7.89,7.88v24.63c0,2.74-2.21,4.95-4.95,4.95c-2.74,0-4.95-2.21-4.95-4.95V28.11H11.29v268.51h319.72
			c2.74,0,4.95,2.21,4.95,4.95C335.96,304.31,333.75,306.52,331.01,306.52z"/>
	</g>
	<g>
		<g>
			<path class="st0" d="M261.84,185.1c-1.95,0-3.93-0.69-5.56-2.06l-16.57-14.06c-2.09-1.76-2.34-4.9-0.57-6.97
				c1.77-2.1,4.9-2.34,6.97-0.57l15.6,13.22l35.83-40.67c1.8-2.03,4.92-2.25,6.99-0.43c2.05,1.81,2.24,4.93,0.44,6.99l-36.67,41.61
				C266.58,184.11,264.22,185.1,261.84,185.1z"/>
		</g>
		<g>
			<path class="st0" d="M300.14,273.84H53.62c-3.35,0-6.07-2.72-6.07-6.07V72.58c0-3.35,2.73-6.06,6.07-6.06h246.52
				c3.35,0,6.06,2.72,6.06,6.06v36.71c0,2.74-2.22,4.95-4.95,4.95c-2.74,0-4.95-2.21-4.95-4.95V76.42H57.46v187.51H296.3v-93.76
				c0-2.74,2.21-4.95,4.95-4.95c2.74,0,4.95,2.21,4.95,4.95v97.6C306.21,271.12,303.49,273.84,300.14,273.84z"/>
		</g>
		<g>
			<path class="st0" d="M272.08,142.22H52.5c-2.74,0-4.95-2.21-4.95-4.95s2.21-4.95,4.95-4.95h219.58c2.74,0,4.95,2.21,4.95,4.95
				S274.82,142.22,272.08,142.22z"/>
		</g>
		<g>
			<path class="st0" d="M287.11,208.03H52.5c-2.74,0-4.95-2.21-4.95-4.95c0-2.74,2.21-4.95,4.95-4.95h234.61
				c2.74,0,4.95,2.22,4.95,4.95C292.07,205.81,289.85,208.03,287.11,208.03z"/>
		</g>
		<g>
			<path class="st0" d="M135.42,273.84c-2.74,0-4.95-2.21-4.95-4.95V71.46c0-2.74,2.21-4.95,4.95-4.95s4.95,2.22,4.95,4.95v197.42
				C140.37,271.62,138.16,273.84,135.42,273.84z"/>
		</g>
		<g>
			<path class="st0" d="M218.34,273.84c-2.74,0-4.95-2.21-4.95-4.95V71.46c0-2.74,2.21-4.95,4.95-4.95c2.74,0,4.95,2.22,4.95,4.95
				v197.42C223.29,271.62,221.08,273.84,218.34,273.84z"/>
		</g>
	</g>
</g>
</svg>
