<?xml version="1.0" encoding="utf-8"?>
<!-- Generator: Adobe Illustrator 24.1.1, SVG Export Plug-In . SVG Version: 6.00 Build 0)  -->
<svg version="1.1" id="Layer_1" xmlns="http://www.w3.org/2000/svg" xmlns:xlink="http://www.w3.org/1999/xlink" x="0px" y="0px"
	 viewBox="0 0 512 512" style="enable-background:new 0 0 512 512;" xml:space="preserve">
<style type="text/css">
	.st0{clip-path:url(#SVGID_2_);}
	.st1{fill:#FFFFFF;}
</style>
<g>
	<defs>
		<rect id="SVGID_1_" width="512" height="512"/>
	</defs>
	<clipPath id="SVGID_2_">
		<use xlink:href="#SVGID_1_"  style="overflow:visible;"/>
	</clipPath>
	<g class="st0">
		<path class="st1" d="M190.13,93.21l52.14-84.84L0.99,125.03l242.2,112.92l-54.08-85.09c123.3-7.29,315.28,28.01,313.57,351.14
			C502.68,504,591.36,98.27,190.13,93.21z"/>
		<path class="st1" d="M502.17,505.21l0.01-1.22c0.69-129.96-30.15-225.42-91.67-283.71c-52.58-49.83-126.77-72.37-220.52-66.98
			l54.54,85.82L-0.18,125.04l0.95-0.46L243.59,7.17l-52.57,85.55c81.16,1.15,148.21,18.99,199.31,53.06
			c42.48,28.32,74.34,68.05,94.7,118.09c44.04,108.25,20.34,231.18,18.15,239.98c0,0.05,0,0.1,0,0.15h-0.04
			c-0.06,0.22-0.09,0.33-0.11,0.35L502.17,505.21z M216.6,151.53c81.54,0,146.9,22.83,194.6,68.03
			c60.9,57.71,91.84,151.62,91.99,279.21c2.49-13.64,8.68-53.17,7.05-102.3c-1.84-55.81-14.49-135.5-64.28-198.22
			c-53.9-67.9-139.97-103.07-255.84-104.54l-0.88-0.01l51.71-84.14L2.15,125.02l239.7,111.75l-53.61-84.36l0.85-0.05
			C198.44,151.81,207.62,151.53,216.6,151.53z"/>
	</g>
</g>
</svg>
