<?xml version="1.0" encoding="utf-8"?>
<!-- Generator: Adobe Illustrator 23.1.0, SVG Export Plug-In . SVG Version: 6.00 Build 0)  -->
<svg version="1.1" id="Layer_1" xmlns="http://www.w3.org/2000/svg" xmlns:xlink="http://www.w3.org/1999/xlink" x="0px" y="0px"
	 viewBox="0 0 360 330" style="enable-background:new 0 0 360 330;" xml:space="preserve">
<style type="text/css">
	.st0{fill:#FFFFFF;}
</style>
<g>
	<g>
		<path class="st0" d="M358.93,329.7H2.05V98.8h146.03l37.92,38.5h172.92V329.7z M13.08,318.67H347.9V148.33H181.4l-37.92-38.5
			H13.08V318.67z"/>
	</g>
	<g>
		<polygon class="st0" points="290.7,147.74 279.66,147.74 279.66,35.77 54.49,35.77 54.49,109.84 43.46,109.84 43.46,24.74 
			290.7,24.74 		"/>
	</g>
	<g>
		<polygon class="st0" points="312.85,148.33 301.82,148.33 301.82,11.27 76.65,11.27 76.65,35.77 65.62,35.77 65.62,0.24 
			312.85,0.24 		"/>
	</g>
	<g>
		<path class="st0" d="M121.17,269.34H91.68c-4.07,0-7.39-3.32-7.39-7.4v-17.54H66.72c-4.06,0-7.37-3.3-7.37-7.36V207.5
			c0-4.06,3.31-7.36,7.37-7.36h17.57v-17.51c0-4.09,3.33-7.42,7.41-7.42h29.44c4.08,0,7.41,3.33,7.41,7.42v17.51h17.51
			c4.09,0,7.43,3.33,7.43,7.43v29.42c0,4.09-3.34,7.43-7.43,7.43h-17.51v17.54C128.56,266.02,125.24,269.34,121.17,269.34z
			 M95.32,258.31h22.2v-24.93h24.94v-22.21h-24.94v-24.93h-22.2v24.93H70.38v22.21h24.94V258.31z"/>
	</g>
</g>
</svg>
