<?xml version="1.0" encoding="utf-8"?>
<!-- Generator: Adobe Illustrator 24.1.1, SVG Export Plug-In . SVG Version: 6.00 Build 0)  -->
<svg version="1.1" id="Layer_1" xmlns="http://www.w3.org/2000/svg" xmlns:xlink="http://www.w3.org/1999/xlink" x="0px" y="0px"
	 viewBox="0 0 317.87 364.6" style="enable-background:new 0 0 317.87 364.6;" xml:space="preserve">
<style type="text/css">
	.st0{clip-path:url(#SVGID_2_);fill:none;stroke:#000000;stroke-width:17.0667;stroke-linecap:round;stroke-miterlimit:10;}
	
		.st1{clip-path:url(#SVGID_4_);fill:none;stroke:#000000;stroke-width:17.0667;stroke-linecap:round;stroke-linejoin:round;stroke-miterlimit:10;}
	.st2{fill:none;stroke:#000000;stroke-width:17.0667;stroke-linecap:round;stroke-miterlimit:10;}
	.st3{fill:none;stroke:#FFFFFF;stroke-width:11;stroke-linecap:round;stroke-miterlimit:10;}
	.st4{fill:none;stroke:#FFFFFF;stroke-width:11;stroke-linecap:round;stroke-linejoin:round;stroke-miterlimit:10;}
	.st5{fill:#FFFFFF;}
	.st6{display:none;fill:none;stroke:#FFFFFF;stroke-width:11;stroke-linecap:round;stroke-miterlimit:10;}
	.st7{display:none;fill:#FFFFFF;}
</style>
<g>
	<circle class="st5" cx="89.84" cy="203.42" r="15"/>
	<circle class="st5" cx="223.44" cy="203.42" r="15"/>
</g>
<path class="st5" d="M156.64,256.92c-3.04,0-5.5-2.46-5.5-5.5v-18c0-3.04,2.46-5.5,5.5-5.5s5.5,2.46,5.5,5.5v18
	C162.14,254.45,159.68,256.92,156.64,256.92z"/>
<path class="st5" d="M156.16,359.51c-58.62,0-104.66-67.35-106.17-69.79c-1.59-2.58-0.79-5.97,1.79-7.57
	c2.58-1.59,5.97-0.79,7.57,1.79l0,0c0.34,0.54,44.39,64.57,96.81,64.57c52.46,0,97.45-64.08,97.8-64.63
	c1.63-2.56,5.03-3.32,7.59-1.7c2.56,1.63,3.33,5.02,1.7,7.58C261.71,292.21,214.74,359.51,156.16,359.51z"/>
<g>
	<path class="st5" d="M156.64,115.92c-3.04,0-5.5-2.46-5.5-5.5v-96c0-3.04,2.46-5.5,5.5-5.5s5.5,2.46,5.5,5.5v96
		C162.14,113.46,159.68,115.92,156.64,115.92z"/>
	<path class="st5" d="M199.54,124.71c-0.44-0.04-0.88-0.13-1.32-0.28c-2.87-0.99-4.4-4.12-3.41-6.99l31.25-90.77
		c0.99-2.87,4.12-4.4,6.99-3.41c2.87,0.99,4.4,4.12,3.41,6.99l-31.25,90.77C204.37,123.46,201.99,124.92,199.54,124.71z"/>
	<path class="st5" d="M244.13,141.28c-0.86-0.15-1.69-0.51-2.43-1.08c-2.39-1.87-2.82-5.33-0.95-7.72l59.1-75.65
		c1.87-2.39,5.33-2.82,7.72-0.95c2.39,1.87,2.82,5.33,0.95,7.72l-59.1,75.65C248.12,140.91,246.07,141.62,244.13,141.28z"/>
	<path class="st5" d="M113.74,124.71c-2.46,0.21-4.84-1.25-5.68-3.69L76.81,30.25c-0.99-2.87,0.54-6,3.41-6.99
		c2.87-0.99,6,0.54,6.99,3.41l31.25,90.77c0.99,2.87-0.54,6-3.41,6.99C114.62,124.58,114.18,124.67,113.74,124.71z"/>
	<path class="st5" d="M69.15,141.28c-1.94,0.34-4-0.37-5.29-2.03L4.75,63.6c-1.87-2.39-1.45-5.85,0.95-7.72
		c2.4-1.87,5.85-1.45,7.72,0.95l59.1,75.65c1.87,2.39,1.45,5.85-0.95,7.72C70.84,140.77,70.01,141.13,69.15,141.28z"/>
</g>
</svg>
