<?xml version="1.0" encoding="utf-8"?>
<!-- Generator: Adobe Illustrator 24.1.1, SVG Export Plug-In . SVG Version: 6.00 Build 0)  -->
<svg version="1.1" id="Layer_1" xmlns="http://www.w3.org/2000/svg" xmlns:xlink="http://www.w3.org/1999/xlink" x="0px" y="0px"
	 viewBox="0 0 512 512" style="enable-background:new 0 0 512 512;" xml:space="preserve">
<style type="text/css">
	.st0{clip-path:url(#SVGID_2_);fill:#FFFFFF;}
	.st1{clip-path:url(#SVGID_4_);fill:#FFFFFF;}
	.st2{clip-path:url(#SVGID_6_);fill:#FFFFFF;}
	.st3{clip-path:url(#SVGID_8_);fill:#FFFFFF;}
	.st4{clip-path:url(#SVGID_10_);fill:#FFFFFF;}
	.st5{clip-path:url(#SVGID_12_);fill:#FFFFFF;}
	.st6{clip-path:url(#SVGID_14_);fill:#FFFFFF;}
	.st7{clip-path:url(#SVGID_16_);fill:#FFFFFF;}
	.st8{clip-path:url(#SVGID_18_);fill:#FFFFFF;}
	.st9{clip-path:url(#SVGID_20_);fill:#FFFFFF;}
</style>
<g>
	<defs>
		<rect id="SVGID_1_" width="512" height="512"/>
	</defs>
	<clipPath id="SVGID_2_">
		<use xlink:href="#SVGID_1_"  style="overflow:visible;"/>
	</clipPath>
	<path class="st0" d="M436.74,100.43H351.4c-2.49,0-4.5-2.01-4.5-4.5V10.66c0-2.49,2.01-4.5,4.5-4.5s4.5,2.01,4.5,4.5v80.77h80.83
		c2.49,0,4.5,2.01,4.5,4.5S439.22,100.43,436.74,100.43z"/>
</g>
<g>
	<defs>
		<rect id="SVGID_3_" width="512" height="512"/>
	</defs>
	<clipPath id="SVGID_4_">
		<use xlink:href="#SVGID_3_"  style="overflow:visible;"/>
	</clipPath>
	<path class="st1" d="M90.86,505.49c-11.83-0.13-21.36-9.81-21.29-21.58V27.83C69.49,16.09,79.01,6.36,90.78,6.16l260.61,0
		c0.04,0,0.08,0,0.11,0c5.11,0.13,9.79,2.5,12.91,6.53l70.3,69.32c4.1,3.46,6.47,8.51,6.51,13.89v388.03v-0.01
		c0.02,11.78-9.56,21.45-21.34,21.56H90.86z M90.86,15.16c-6.79,0.12-12.33,5.79-12.29,12.65v456.13
		c-0.04,6.86,5.5,12.48,12.34,12.55h328.94c6.82-0.06,12.4-5.69,12.39-12.55c0,0,0,0,0-0.01v-388c-0.02-2.74-1.25-5.35-3.4-7.11
		c-0.1-0.08-0.2-0.17-0.3-0.27l-70.67-69.68c-0.17-0.16-0.32-0.34-0.46-0.53c-1.44-1.95-3.66-3.11-6.08-3.19H90.86z M441.23,483.93
		L441.23,483.93L441.23,483.93z"/>
</g>
<g>
	<defs>
		<rect id="SVGID_5_" width="512" height="512"/>
	</defs>
	<clipPath id="SVGID_6_">
		<use xlink:href="#SVGID_5_"  style="overflow:visible;"/>
	</clipPath>
	<path class="st2" d="M223.69,271.67c-49.48,0-89.74-40.23-89.74-89.68s40.25-89.68,89.74-89.68c49.48,0,89.73,40.23,89.73,89.68
		S273.17,271.67,223.69,271.67z M223.69,101.32c-44.52,0-80.74,36.19-80.74,80.68s36.22,80.68,80.74,80.68
		c44.52,0,80.73-36.19,80.73-80.68S268.21,101.32,223.69,101.32z"/>
</g>
<g>
	<defs>
		<rect id="SVGID_7_" width="512" height="512"/>
	</defs>
	<clipPath id="SVGID_8_">
		<use xlink:href="#SVGID_7_"  style="overflow:visible;"/>
	</clipPath>
	<path class="st3" d="M308.25,197.24c-0.19,0-0.38-0.01-0.57-0.04l-84.54-10.74c-1.47-0.19-2.75-1.09-3.43-2.4s-0.67-2.89,0.04-4.19
		l40.34-75.04c1.18-2.19,3.91-3.01,6.09-1.83c2.19,1.18,3.01,3.91,1.83,6.09l-37.24,69.27l78.05,9.92c2.47,0.31,4.21,2.57,3.9,5.03
		C312.42,195.58,310.48,197.24,308.25,197.24z"/>
</g>
<g>
	<defs>
		<rect id="SVGID_9_" width="512" height="512"/>
	</defs>
	<clipPath id="SVGID_10_">
		<use xlink:href="#SVGID_9_"  style="overflow:visible;"/>
	</clipPath>
	<path class="st4" d="M159.03,441.5c-2.49,0-4.5-2.01-4.5-4.5v-42.64c0-2.49,2.01-4.5,4.5-4.5s4.5,2.01,4.5,4.5V437
		C163.53,439.48,161.52,441.5,159.03,441.5z"/>
</g>
<g>
	<defs>
		<rect id="SVGID_11_" width="512" height="512"/>
	</defs>
	<clipPath id="SVGID_12_">
		<use xlink:href="#SVGID_11_"  style="overflow:visible;"/>
	</clipPath>
	<path class="st5" d="M329.7,441.5c-2.49,0-4.5-2.01-4.5-4.5V309.09c0-2.49,2.01-4.5,4.5-4.5s4.5,2.01,4.5,4.5V437
		C334.2,439.48,332.18,441.5,329.7,441.5z"/>
</g>
<g>
	<defs>
		<rect id="SVGID_13_" width="512" height="512"/>
	</defs>
	<clipPath id="SVGID_14_">
		<use xlink:href="#SVGID_13_"  style="overflow:visible;"/>
	</clipPath>
	<path class="st6" d="M201.7,441.5c-2.49,0-4.5-2.01-4.5-4.5v-85.27c0-2.49,2.01-4.5,4.5-4.5s4.5,2.01,4.5,4.5V437
		C206.2,439.48,204.18,441.5,201.7,441.5z"/>
</g>
<g>
	<defs>
		<rect id="SVGID_15_" width="512" height="512"/>
	</defs>
	<clipPath id="SVGID_16_">
		<use xlink:href="#SVGID_15_"  style="overflow:visible;"/>
	</clipPath>
	<path class="st7" d="M287.03,441.5c-2.49,0-4.5-2.01-4.5-4.5v-85.27c0-2.49,2.01-4.5,4.5-4.5s4.5,2.01,4.5,4.5V437
		C291.53,439.48,289.52,441.5,287.03,441.5z"/>
</g>
<g>
	<defs>
		<rect id="SVGID_17_" width="512" height="512"/>
	</defs>
	<clipPath id="SVGID_18_">
		<use xlink:href="#SVGID_17_"  style="overflow:visible;"/>
	</clipPath>
	<path class="st8" d="M372.36,441.5c-2.49,0-4.5-2.01-4.5-4.5V245.12c0-2.49,2.01-4.5,4.5-4.5s4.5,2.01,4.5,4.5V437
		C376.86,439.48,374.85,441.5,372.36,441.5z"/>
</g>
<g>
	<defs>
		<rect id="SVGID_19_" width="512" height="512"/>
	</defs>
	<clipPath id="SVGID_20_">
		<use xlink:href="#SVGID_19_"  style="overflow:visible;"/>
	</clipPath>
	<path class="st9" d="M244.36,441.5c-2.49,0-4.5-2.01-4.5-4.5V330.41c0-2.49,2.01-4.5,4.5-4.5s4.5,2.01,4.5,4.5V437
		C248.86,439.48,246.85,441.5,244.36,441.5z"/>
</g>
</svg>
