<?xml version="1.0" encoding="utf-8"?>
<!-- Generator: Adobe Illustrator 23.1.0, SVG Export Plug-In . SVG Version: 6.00 Build 0)  -->
<svg version="1.1" id="Layer_1" xmlns="http://www.w3.org/2000/svg" xmlns:xlink="http://www.w3.org/1999/xlink" x="0px" y="0px"
	 viewBox="0 0 320 410" style="enable-background:new 0 0 320 410;" xml:space="preserve">
<style type="text/css">
	.st0{fill:#FFFFFF;}
</style>
<g>
	<g>
		<path class="st0" d="M217.3,408.49H20.03c-10.94,0-19.83-8.89-19.83-19.83V124.3c0-30.35,24.69-55.04,55.04-55.04H182.1
			c30.35,0,55.04,24.69,55.04,55.04v235.14h-9.91V124.3c0-24.89-20.25-45.13-45.13-45.13H55.23c-24.89,0-45.13,20.25-45.13,45.13
			v264.35c0,5.47,4.45,9.93,9.93,9.93H217.3V408.49z"/>
	</g>
	<g>
		<path class="st0" d="M182.35,79.17H54.98v-32h127.37V79.17z M64.88,69.26h107.56V57.08H64.88V69.26z"/>
	</g>
	<g>
		<path class="st0" d="M197.96,57.08H39.37c-5.22,0-9.48-4.25-9.48-9.48V11.08c0-5.22,4.25-9.48,9.48-9.48h158.58
			c5.22,0,9.48,4.25,9.48,9.48V47.6C207.43,52.83,203.18,57.08,197.96,57.08z M39.37,11.51L39.8,47.6l158.15-0.43l-0.43-35.66H39.37
			z"/>
	</g>
	<g>
		<g>
			<rect x="48.79" y="6.56" class="st0" width="9.91" height="45.56"/>
		</g>
		<g>
			<rect x="70.66" y="6.56" class="st0" width="9.91" height="45.56"/>
		</g>
		<g>
			<rect x="92.52" y="6.56" class="st0" width="9.91" height="45.56"/>
		</g>
		<g>
			<rect x="114.39" y="6.56" class="st0" width="9.91" height="45.56"/>
		</g>
		<g>
			<rect x="136.25" y="6.56" class="st0" width="9.91" height="45.56"/>
		</g>
		<g>
			<rect x="158.12" y="6.56" class="st0" width="9.91" height="45.56"/>
		</g>
		<g>
			<rect x="179.99" y="6.56" class="st0" width="9.91" height="45.56"/>
		</g>
	</g>
	<g>
		<path class="st0" d="M237.14,337.72H0.19V158.5h236.94V337.72z M10.1,327.82h217.13V168.4H10.1V327.82z"/>
	</g>
	<g>
		<g>
			<path class="st0" d="M244.22,408.49h-57.63c-14.88,0-27-12.11-27-27c0-14.88,12.11-27,27-27h57.63c14.88,0,27,12.11,27,27
				C271.22,396.38,259.11,408.49,244.22,408.49z M186.59,364.4c-9.42,0-17.09,7.67-17.09,17.09c0,9.43,7.67,17.09,17.09,17.09h57.63
				c9.42,0,17.09-7.67,17.09-17.09c0-9.42-7.67-17.09-17.09-17.09H186.59z"/>
		</g>
		<g>
			<path class="st0" d="M215.4,408.49c-2.74,0-4.95-2.22-4.95-4.95v-44.09c0-2.74,2.22-4.95,4.95-4.95s4.95,2.22,4.95,4.95v44.09
				C220.36,406.27,218.14,408.49,215.4,408.49z"/>
		</g>
	</g>
	<g>
		<path class="st0" d="M284.1,398.29c-7.52,0-14.7-2.34-20.76-6.76c-2.21-1.61-2.7-4.71-1.08-6.92c1.61-2.22,4.71-2.7,6.92-1.08
			c4.36,3.18,9.52,4.86,14.93,4.86c13.97,0,25.33-11.36,25.33-25.33c0-13.97-11.36-25.33-25.33-25.33
			c-12.84,0-23.65,9.6-25.16,22.33c-0.32,2.72-2.75,4.64-5.5,4.34c-2.72-0.32-4.66-2.78-4.34-5.5c2.09-17.71,17.14-31.07,35-31.07
			c19.43,0,35.24,15.81,35.24,35.24C319.34,382.48,303.53,398.29,284.1,398.29z"/>
	</g>
	<g>
		<path class="st0" d="M266.26,386.44c-1.3,0-2.6-0.51-3.58-1.52c-1.9-1.98-1.83-5.11,0.15-7l40.35-38.67c1.98-1.89,5.1-1.83,7,0.14
			c1.9,1.98,1.83,5.11-0.15,7l-40.35,38.67C268.73,385.98,267.5,386.44,266.26,386.44z"/>
	</g>
	<g>
		<path class="st0" d="M106.03,234.62H77.48V194.1h28.55c11.17,0,20.26,9.09,20.26,20.26C126.29,225.53,117.2,234.62,106.03,234.62z
			 M87.39,224.71h18.64c5.71,0,10.35-4.64,10.35-10.35c0-5.71-4.64-10.35-10.35-10.35H87.39V224.71z"/>
	</g>
	<g>
		<rect x="77.48" y="223.77" class="st0" width="9.91" height="30.39"/>
	</g>
	<g>
		
			<rect x="124.32" y="222.29" transform="matrix(0.814 -0.5808 0.5808 0.814 -129.972 124.4075)" class="st0" width="9.91" height="85.74"/>
	</g>
	<g>
		
			<rect x="93.2" y="265.73" transform="matrix(0.5807 -0.8141 0.8141 0.5807 -166.1614 218.7406)" class="st0" width="72.16" height="9.91"/>
	</g>
</g>
</svg>
