<?xml version="1.0" encoding="utf-8"?>
<!-- Generator: Adobe Illustrator 24.1.1, SVG Export Plug-In . SVG Version: 6.00 Build 0)  -->
<svg version="1.1" id="Layer_1" xmlns="http://www.w3.org/2000/svg" xmlns:xlink="http://www.w3.org/1999/xlink" x="0px" y="0px"
	 viewBox="0 0 512 476.9" style="enable-background:new 0 0 512 476.9;" xml:space="preserve">
<style type="text/css">
	.st0{fill:#FFFFFF;}
</style>
<g>
	<path class="st0" d="M440.7,476.9H310.2V323.3H201.8v153.6H71.3V266.6c0-3,2.5-5.5,5.5-5.5s5.5,2.5,5.5,5.5v199.3h108.5V312.3
		h130.5v153.6h108.5V266.6c0-3,2.5-5.5,5.5-5.5s5.5,2.5,5.5,5.5V476.9z"/>
	<path class="st0" d="M503.5,263.6c-1.4,0-2.8-0.5-3.9-1.6L256,18.4L12.4,262c-2.1,2.1-5.6,2.1-7.8,0s-2.2-5.6,0-7.8L252.1,6.7
		c1-1,2.4-1.6,3.9-1.6c1.5,0,2.9,0.6,3.9,1.6l247.5,247.5c2.1,2.1,2.1,5.6,0,7.8C506.3,263,504.9,263.6,503.5,263.6z"/>
	<path class="st0" d="M418.1,118.5c-3,0-5.5-2.5-5.5-5.5V33.2h-79.8c-3,0-5.5-2.5-5.5-5.5s2.5-5.5,5.5-5.5h90.8V113
		C423.6,116,421.2,118.5,418.1,118.5z"/>
</g>
</svg>
